<svg xmlns="http://www.w3.org/2000/svg" width="24" height="24" viewBox="0 0 24 24" fill="none">
  <path d="M9.75 3.75H5.25C4.852 3.75 4.471 3.91 4.189 4.19C3.908 4.47 3.75 4.85 3.75 5.25V9.75C3.75 10.15 3.908 10.53 4.189 10.81C4.471 11.09 4.852 11.25 5.25 11.25H9.75C10.148 11.25 10.529 11.09 10.811 10.81C11.092 10.53 11.25 10.15 11.25 9.75V5.25C11.25 4.85 11.092 4.47 10.811 4.19C10.529 3.91 10.148 3.75 9.75 3.75ZM9.75 9.75H5.25V5.25H9.75V9.75ZM9.75 12.75H5.25C4.852 12.75 4.471 12.91 4.189 13.19C3.908 13.47 3.75 13.85 3.75 14.25V18.75C3.75 19.15 3.908 19.53 4.189 19.81C4.471 20.09 4.852 20.25 5.25 20.25H9.75C10.148 20.25 10.529 20.09 10.811 19.81C11.092 19.53 11.25 19.15 11.25 18.75V14.25C11.25 13.85 11.092 13.47 10.811 13.19C10.529 12.91 10.148 12.75 9.75 12.75ZM9.75 18.75H5.25V14.25H9.75V18.75ZM18.75 3.75H14.25C13.852 3.75 13.471 3.91 13.189 4.19C12.908 4.47 12.75 4.85 12.75 5.25V9.75C12.75 10.15 12.908 10.53 13.189 10.81C13.471 11.09 13.852 11.25 14.25 11.25H18.75C19.148 11.25 19.529 11.09 19.811 10.81C20.092 10.53 20.25 10.15 20.25 9.75V5.25C20.25 4.85 20.092 4.47 19.811 4.19C19.529 3.91 19.148 3.75 18.75 3.75ZM18.75 9.75H14.25V5.25H18.75V9.75ZM12.75 16.5V13.5C12.75 13.3 12.829 13.11 12.97 12.97C13.11 12.83 13.301 12.75 13.5 12.75C13.699 12.75 13.89 12.83 14.03 12.97C14.171 13.11 14.25 13.3 14.25 13.5V16.5C14.25 16.7 14.171 16.89 14.03 17.03C13.89 17.17 13.699 17.25 13.5 17.25C13.301 17.25 13.11 17.17 12.97 17.03C12.829 16.89 12.75 16.7 12.75 16.5ZM20.25 15C20.25 15.2 20.171 15.39 20.03 15.53C19.89 15.67 19.699 15.75 19.5 15.75H17.25V19.5C17.25 19.7 17.171 19.89 17.03 20.03C16.89 20.17 16.699 20.25 16.5 20.25H13.5C13.301 20.25 13.11 20.17 12.97 20.03C12.829 19.89 12.75 19.7 12.75 19.5C12.75 19.3 12.829 19.11 12.97 18.97C13.11 18.83 13.301 18.75 13.5 18.75H15.75V13.5C15.75 13.3 15.829 13.11 15.97 12.97C16.11 12.83 16.301 12.75 16.5 12.75C16.699 12.75 16.89 12.83 17.03 12.97C17.171 13.11 17.25 13.3 17.25 13.5V14.25H19.5C19.699 14.25 19.89 14.33 20.03 14.47C20.171 14.61 20.25 14.8 20.25 15ZM20.25 18V19.5C20.25 19.7 20.171 19.89 20.03 20.03C19.89 20.17 19.699 20.25 19.5 20.25C19.301 20.25 19.11 20.17 18.97 20.03C18.829 19.89 18.75 19.7 18.75 19.5V18C18.75 17.8 18.829 17.61 18.97 17.47C19.11 17.33 19.301 17.25 19.5 17.25C19.699 17.25 19.89 17.33 20.03 17.47C20.171 17.61 20.25 17.8 20.25 18Z" fill="currentColor"/>
</svg>
