<svg xmlns="http://www.w3.org/2000/svg" width="24" height="24" viewBox="0 0 24 24" fill="none">
  <path d="M21.375 12C21.375 12.199 21.296 12.39 21.155 12.53C21.015 12.671 20.824 12.75 20.625 12.75H8.185L13.656 18.219C13.725 18.289 13.781 18.372 13.818 18.463C13.856 18.554 13.875 18.651 13.875 18.75C13.875 18.848 13.856 18.946 13.818 19.037C13.781 19.128 13.725 19.211 13.656 19.281C13.586 19.35 13.503 19.406 13.412 19.443C13.321 19.481 13.224 19.5 13.125 19.5C13.026 19.5 12.929 19.481 12.838 19.443C12.747 19.406 12.664 19.35 12.594 19.281L5.844 12.531C5.775 12.461 5.719 12.378 5.682 12.287C5.644 12.196 5.624 12.098 5.624 12C5.624 11.901 5.644 11.804 5.682 11.713C5.719 11.622 5.775 11.539 5.844 11.469L12.594 4.719C12.664 4.65 12.747 4.594 12.838 4.557C12.929 4.519 13.026 4.5 13.125 4.5C13.224 4.5 13.321 4.519 13.412 4.557C13.503 4.594 13.586 4.65 13.656 4.719C13.725 4.789 13.781 4.872 13.818 4.963C13.856 5.054 13.875 5.151 13.875 5.25C13.875 5.348 13.856 5.446 13.818 5.537C13.781 5.628 13.725 5.711 13.656 5.781L8.185 11.25H20.625C20.824 11.25 21.015 11.329 21.155 11.47C21.296 11.61 21.375 11.801 21.375 12ZM3.375 3C3.176 3 2.985 3.079 2.845 3.22C2.704 3.36 2.625 3.551 2.625 3.75V20.25C2.625 20.449 2.704 20.64 2.845 20.78C2.985 20.921 3.176 21 3.375 21C3.574 21 3.765 20.921 3.905 20.78C4.046 20.64 4.125 20.449 4.125 20.25V3.75C4.125 3.551 4.046 3.36 3.905 3.22C3.765 3.079 3.574 3 3.375 3Z" fill="currentColor"/>
</svg>
