<svg xmlns="http://www.w3.org/2000/svg" width="24" height="24" viewBox="0 0 24 24" fill="none">
  <path d="M12.0004 2.2507C10.0704 2.2507 8.1904 2.8207 6.5804 3.8907C4.9804 4.9607 3.7304 6.4807 2.9904 8.2707C2.2504 10.0507 2.0604 12.0107 2.4404 13.9007C2.8104 15.7907 3.7404 17.5307 5.1004 18.8907C6.4704 20.2607 8.2104 21.1807 10.1004 21.5607C11.9904 21.9407 13.9504 21.7407 15.7304 21.0107C17.5104 20.2707 19.0304 19.0207 20.1104 17.4107C21.1804 15.8107 21.7504 13.9307 21.7504 12.0007C21.7504 9.4107 20.7204 6.9307 18.8904 5.1107C17.0604 3.2807 14.5804 2.2507 12.0004 2.2507ZM12.3704 12.0007C12.1504 12.0007 11.9304 11.9307 11.7504 11.8107C11.5604 11.6807 11.4204 11.5107 11.3304 11.3007C11.2504 11.1007 11.2304 10.8707 11.2704 10.6507C11.3104 10.4307 11.4204 10.2307 11.5804 10.0807C11.7404 9.9207 11.9404 9.8107 12.1504 9.7707C12.3704 9.7307 12.6004 9.7507 12.8004 9.8307C13.0104 9.9207 13.1904 10.0607 13.3104 10.2507C13.4304 10.4307 13.5004 10.6507 13.5004 10.8707C13.5004 11.1707 13.3804 11.4607 13.1704 11.6707C12.9604 11.8807 12.6704 12.0007 12.3704 12.0007ZM14.2504 8.6207C14.2504 8.4007 14.3204 8.1807 14.4404 8.0007C14.5604 7.8107 14.7404 7.6707 14.9404 7.5807C15.1504 7.5007 15.3804 7.4807 15.5904 7.5207C15.8104 7.5607 16.0104 7.6707 16.1704 7.8307C16.3304 7.9807 16.4304 8.1807 16.4804 8.4007C16.5204 8.6207 16.5004 8.8507 16.4104 9.0507C16.3304 9.2607 16.1804 9.4307 16.0004 9.5607C15.8104 9.6807 15.6004 9.7507 15.3704 9.7507C15.0804 9.7507 14.7904 9.6307 14.5804 9.4207C14.3704 9.2107 14.2504 8.9207 14.2504 8.6207ZM16.1204 13.5007C15.9004 13.5007 15.6804 13.4307 15.5004 13.3107C15.3104 13.1807 15.1704 13.0107 15.0804 12.8007C15.0004 12.6007 14.9804 12.3707 15.0204 12.1507C15.0604 11.9307 15.1704 11.7307 15.3304 11.5807C15.4904 11.4207 15.6904 11.3107 15.9004 11.2707C16.1204 11.2307 16.3504 11.2507 16.5504 11.3307C16.7604 11.4207 16.9404 11.5607 17.0604 11.7507C17.1804 11.9307 17.2504 12.1507 17.2504 12.3707C17.2504 12.6707 17.1304 12.9607 16.9204 13.1707C16.7104 13.3807 16.4204 13.5007 16.1204 13.5007Z" fill="currentColor"/>
</svg>
