<svg xmlns="http://www.w3.org/2000/svg" width="24" height="24" viewBox="0 0 24 24" fill="none">
  <path d="M22.655 6.905C22.585 6.975 22.505 7.035 22.415 7.065C22.325 7.105 22.225 7.125 22.125 7.125C22.025 7.125 21.925 7.105 21.835 7.065C21.745 7.035 21.665 6.975 21.595 6.905L19.875 5.185L13.215 11.845L12.155 10.785L18.815 4.125L17.095 2.405C17.025 2.335 16.965 2.255 16.935 2.165C16.895 2.075 16.875 1.975 16.875 1.875C16.875 1.775 16.895 1.675 16.935 1.585C16.965 1.495 17.025 1.415 17.095 1.345C17.235 1.205 17.425 1.125 17.625 1.125C17.725 1.125 17.825 1.145 17.915 1.185C18.005 1.225 18.085 1.275 18.155 1.345L22.655 5.845C22.725 5.915 22.785 5.995 22.815 6.085C22.855 6.175 22.875 6.275 22.875 6.375C22.875 6.475 22.855 6.575 22.815 6.665C22.785 6.755 22.725 6.835 22.655 6.905ZM7.875 16.875C7.725 16.875 7.585 16.835 7.455 16.745C7.335 16.665 7.235 16.545 7.185 16.415C7.125 16.275 7.105 16.125 7.135 15.975C7.165 15.835 7.235 15.705 7.345 15.595L12.155 10.785L8.935 7.565C8.655 7.285 8.275 7.125 7.875 7.125C7.475 7.125 7.095 7.285 6.815 7.565L1.565 12.815C1.425 12.955 1.315 13.115 1.235 13.305C1.165 13.485 1.125 13.675 1.125 13.875V21.375C1.125 21.775 1.285 22.155 1.565 22.435C1.845 22.715 2.225 22.875 2.625 22.875H10.125C10.325 22.875 10.515 22.835 10.695 22.765C10.885 22.685 11.045 22.575 11.185 22.435L16.435 17.185C16.715 16.905 16.875 16.525 16.875 16.125C16.875 15.725 16.715 15.345 16.435 15.065L13.215 11.845L8.405 16.655C8.335 16.725 8.255 16.785 8.165 16.815C8.075 16.855 7.975 16.875 7.875 16.875Z" fill="currentColor"/>
</svg>
