<svg xmlns="http://www.w3.org/2000/svg" width="24" height="24" viewBox="0 0 24 24" fill="none">
  <path d="M22.5 7.1261V18.3761C22.5 18.5761 22.421 18.7661 22.281 18.9061C22.14 19.0461 21.949 19.1261 21.75 19.1261H15C14.404 19.1261 13.833 19.3561 13.411 19.7761C12.989 20.2061 12.752 20.7761 12.75 21.3661C12.753 21.5161 12.709 21.6761 12.623 21.7961C12.537 21.9261 12.414 22.0261 12.27 22.0761C12.156 22.1161 12.034 22.1361 11.912 22.1161C11.791 22.1061 11.675 22.0661 11.575 21.9961C11.474 21.9261 11.392 21.8361 11.336 21.7261C11.279 21.6161 11.25 21.4961 11.25 21.3761C11.25 20.7761 11.013 20.2061 10.591 19.7861C10.169 19.3561 9.597 19.1261 9 19.1261H2.25C2.051 19.1261 1.861 19.0461 1.72 18.9061C1.579 18.7661 1.5 18.5761 1.5 18.3761V7.1261C1.5 6.9261 1.579 6.7361 1.72 6.5961C1.861 6.4561 2.051 6.3761 2.25 6.3761H8.25C9.046 6.3761 9.809 6.6861 10.372 7.2561C10.934 7.8161 11.25 8.5761 11.25 9.3761V15.3461C11.248 15.5461 11.318 15.7261 11.448 15.8761C11.578 16.0161 11.758 16.1061 11.951 16.1261C12.053 16.1261 12.156 16.1161 12.253 16.0761C12.35 16.0461 12.438 15.9861 12.513 15.9161C12.588 15.8461 12.648 15.7661 12.689 15.6661C12.73 15.5761 12.75 15.4761 12.75 15.3761V9.3761C12.75 8.5761 13.066 7.8161 13.629 7.2561C14.192 6.6861 14.955 6.3761 15.75 6.3761H21.75C21.949 6.3761 22.14 6.4561 22.281 6.5961C22.421 6.7361 22.5 6.9261 22.5 7.1261ZM8.326 4.8761H8.344C8.991 4.8861 9.627 5.0361 10.21 5.3161C10.792 5.6061 11.307 6.0061 11.719 6.5061C11.754 6.5461 11.798 6.5761 11.847 6.6061C11.896 6.6261 11.95 6.6361 12.004 6.6361C12.058 6.6361 12.112 6.6261 12.161 6.6061C12.21 6.5761 12.254 6.5461 12.289 6.5061C12.7 6.0061 13.214 5.6061 13.795 5.3261C14.376 5.0361 15.011 4.8861 15.657 4.8761H15.674C15.739 4.8761 15.802 4.8561 15.858 4.8261C15.914 4.7961 15.961 4.7461 15.994 4.6961C16.027 4.6361 16.046 4.5761 16.048 4.5161C16.05 4.4461 16.036 4.3861 16.006 4.3261C15.629 3.5861 15.055 2.9661 14.348 2.5361C13.641 2.1061 12.829 1.8761 12 1.8761C11.172 1.8761 10.359 2.1061 9.652 2.5361C8.946 2.9661 8.372 3.5861 7.994 4.3261C7.965 4.3861 7.95 4.4461 7.952 4.5161C7.955 4.5761 7.973 4.6361 8.007 4.6961C8.04 4.7461 8.087 4.7961 8.143 4.8261C8.199 4.8561 8.262 4.8761 8.326 4.8761Z" fill="currentColor"/>
</svg>
