<svg xmlns="http://www.w3.org/2000/svg" width="24" height="24" viewBox="0 0 24 24" fill="none">
  <path d="M20.2478 11.626C20.0408 11.626 19.8338 11.636 19.6288 11.676L19.0838 10.256C19.4658 10.166 19.8558 10.126 20.2478 10.126C20.4468 10.126 20.6378 10.046 20.7788 9.906C20.9188 9.766 20.9978 9.576 20.9978 9.376C20.9978 9.176 20.9188 8.986 20.7788 8.846C20.6378 8.706 20.4468 8.626 20.2478 8.626H18.4558L17.1988 5.356C17.1438 5.216 17.0478 5.086 16.9228 5.006C16.7978 4.916 16.6498 4.876 16.4978 4.876H13.4978C13.2988 4.876 13.1088 4.956 12.9678 5.096C12.8268 5.236 12.7478 5.426 12.7478 5.626C12.7478 5.826 12.8268 6.016 12.9678 6.156C13.1088 6.296 13.2988 6.376 13.4978 6.376H15.9838L16.8488 8.626H14.2478C12.5138 8.626 11.1078 9.026 10.1818 9.786C9.9648 9.966 9.7018 10.076 9.4238 10.116C9.1468 10.146 8.8648 10.106 8.6108 9.986C7.6188 9.536 1.7398 7.156 1.6918 7.146C1.5048 7.096 1.3048 7.116 1.1318 7.206C0.9598 7.296 0.8288 7.446 0.7678 7.636C0.7068 7.816 0.7208 8.016 0.8058 8.196C0.8908 8.366 1.0408 8.506 1.2238 8.576C1.2238 8.576 6.4268 10.626 7.4608 11.656C8.2638 12.456 8.7848 13.496 8.9448 14.626H7.4228C7.2368 13.716 6.7198 12.906 5.9718 12.356C5.2228 11.806 4.2968 11.546 3.3718 11.646C2.4468 11.736 1.5898 12.166 0.9668 12.856C0.3438 13.546 -0.0012 14.446 -0.0012 15.376C-0.0012 16.306 0.3438 17.196 0.9668 17.886C1.5898 18.576 2.4468 19.006 3.3718 19.106C4.2968 19.196 5.2228 18.946 5.9718 18.396C6.7198 17.846 7.2368 17.036 7.4228 16.126H12.3088C12.9598 16.126 13.5928 15.916 14.1128 15.526C14.6328 15.136 15.0118 14.586 15.1908 13.956C15.3778 13.296 15.6948 12.666 16.1228 12.126C16.5498 11.586 17.0808 11.136 17.6838 10.796L18.2298 12.216C17.4698 12.696 16.9098 13.446 16.6548 14.306C16.3988 15.176 16.4638 16.106 16.8378 16.926C17.2118 17.746 17.8698 18.406 18.6908 18.786C19.5108 19.156 20.4398 19.226 21.3058 18.966C22.1718 18.716 22.9178 18.156 23.4058 17.396C23.8938 16.646 24.0918 15.736 23.9628 14.836C23.8348 13.946 23.3878 13.126 22.7058 12.536C22.0228 11.946 21.1508 11.626 20.2478 11.626ZM3.7478 16.126H5.8688C5.6918 16.626 5.3438 17.046 4.8858 17.316C4.4278 17.586 3.8898 17.676 3.3668 17.586C2.8438 17.496 2.3688 17.226 2.0268 16.826C1.6848 16.416 1.4978 15.906 1.4978 15.376C1.4978 14.846 1.6848 14.326 2.0268 13.926C2.3688 13.516 2.8438 13.246 3.3668 13.156C3.8898 13.066 4.4278 13.166 4.8858 13.436C5.3438 13.696 5.6918 14.126 5.8688 14.626H3.7478C3.5488 14.626 3.3588 14.706 3.2178 14.846C3.0768 14.986 2.9978 15.176 2.9978 15.376C2.9978 15.576 3.0768 15.766 3.2178 15.906C3.3588 16.046 3.5488 16.126 3.7478 16.126ZM20.2478 17.626C19.7888 17.626 19.3398 17.476 18.9628 17.216C18.5858 16.956 18.2988 16.586 18.1398 16.156C17.9808 15.716 17.9578 15.246 18.0738 14.806C18.1888 14.356 18.4378 13.966 18.7878 13.666L19.5478 15.646C19.6188 15.826 19.7608 15.976 19.9428 16.056C20.1248 16.136 20.3318 16.146 20.5168 16.076C20.7028 16.006 20.8528 15.856 20.9338 15.676C21.0148 15.496 21.0198 15.286 20.9488 15.106L20.1868 13.126H20.2478C20.8448 13.126 21.4168 13.356 21.8388 13.786C22.2608 14.206 22.4978 14.776 22.4978 15.376C22.4978 15.966 22.2608 16.546 21.8388 16.966C21.4168 17.386 20.8448 17.626 20.2478 17.626Z" fill="currentColor"/>
</svg>
